<svg xmlns="http://www.w3.org/2000/svg" version="1.1" xmlns:xlink="http://www.w3.org/1999/xlink" xmlns:svgjs="http://svgjs.com/svgjs" width="1440" height="950" preserveAspectRatio="none" viewBox="0 0 1440 950"><g mask="url(&quot;#SvgjsMask1005&quot;)" fill="none"><path d="M1702.43 449.24C1561.77 453.64 1483.98 689.97 1183.65 667.74 883.33 645.51 882.46-50.54 664.88-162.72" stroke="rgba(0, 0, 0, 1)" stroke-width="2"></path><path d="M1710.64 633.8C1603.92 632.61 1505.61 515.05 1300.59 515.05 1095.56 515.05 1153.12 675.64 890.53 633.8 627.95 591.96 666.04-36.99 480.48-162.2" stroke="rgba(0, 0, 0, 1)" stroke-width="2"></path><path d="M1584.67 473.62C1467.49 472.64 1357.94 354.87 1131.21 354.87 904.48 354.87 921.53 480.08 677.75 473.62 433.97 467.16 383.76 36.89 224.29-4.35" stroke="rgba(0, 0, 0, 1)" stroke-width="2"></path><path d="M1585.31 333.52C1410.55 337.12 1199.23 581.92 927.71 571.02 656.19 560.12 752.31-7.62 598.91-123.12" stroke="rgba(0, 0, 0, 1)" stroke-width="2"></path><path d="M1632.78 745.23C1515.24 744.26 1405.31 626.48 1177.85 626.48 950.38 626.48 1022.29 800.96 722.91 745.23 423.53 689.5 477.69-32.21 267.98-183.38" stroke="rgba(0, 0, 0, 1)" stroke-width="2"></path></g><defs><mask id="SvgjsMask1005"><rect width="1440" height="950" fill="#ffffff"></rect></mask></defs></svg>