<svg xmlns="http://www.w3.org/2000/svg" version="1.1" xmlns:xlink="http://www.w3.org/1999/xlink" xmlns:svgjs="http://svgjs.com/svgjs" width="1440" height="900" preserveAspectRatio="none" viewBox="0 0 1440 900"><g mask="url(&quot;#SvgjsMask1018&quot;)" fill="none"><rect width="1440" height="900" x="0" y="0" fill="rgba(44, 44, 44, 1)"></rect><path d="M1010 670L496 156" stroke-width="8" stroke="url(#SvgjsLinearGradient1019)" stroke-linecap="round" class="TopLeft"></path><path d="M1 825L-548 276" stroke-width="6" stroke="url(#SvgjsLinearGradient1019)" stroke-linecap="round" class="TopLeft"></path><path d="M1102 491L568 -43" stroke-width="10" stroke="url(#SvgjsLinearGradient1019)" stroke-linecap="round" class="TopLeft"></path><path d="M951 391L1432 872" stroke-width="8" stroke="url(#SvgjsLinearGradient1020)" stroke-linecap="round" class="BottomRight"></path><path d="M710 375L247 -88" stroke-width="10" stroke="url(#SvgjsLinearGradient1020)" stroke-linecap="round" class="BottomRight"></path><path d="M152 733L-396 185" stroke-width="8" stroke="url(#SvgjsLinearGradient1019)" stroke-linecap="round" class="TopLeft"></path><path d="M266 135L617 486" stroke-width="8" stroke="url(#SvgjsLinearGradient1020)" stroke-linecap="round" class="BottomRight"></path><path d="M27 870L-347 496" stroke-width="10" stroke="url(#SvgjsLinearGradient1020)" stroke-linecap="round" class="BottomRight"></path><path d="M964 735L304 75" stroke-width="8" stroke="url(#SvgjsLinearGradient1019)" stroke-linecap="round" class="TopLeft"></path><path d="M404 500L894 990" stroke-width="10" stroke="url(#SvgjsLinearGradient1020)" stroke-linecap="round" class="BottomRight"></path><path d="M191 68L-52 -175" stroke-width="10" stroke="url(#SvgjsLinearGradient1020)" stroke-linecap="round" class="BottomRight"></path><path d="M1107 760L473 126" stroke-width="10" stroke="url(#SvgjsLinearGradient1020)" stroke-linecap="round" class="BottomRight"></path><path d="M179 173L-286 -292" stroke-width="10" stroke="url(#SvgjsLinearGradient1020)" stroke-linecap="round" class="BottomRight"></path><path d="M522 403L-64 -183" stroke-width="6" stroke="url(#SvgjsLinearGradient1020)" stroke-linecap="round" class="BottomRight"></path><path d="M781 183L167 -431" stroke-width="10" stroke="url(#SvgjsLinearGradient1019)" stroke-linecap="round" class="TopLeft"></path><path d="M324 102L11 -211" stroke-width="8" stroke="url(#SvgjsLinearGradient1019)" stroke-linecap="round" class="TopLeft"></path><path d="M307 129L-65 -243" stroke-width="8" stroke="url(#SvgjsLinearGradient1019)" stroke-linecap="round" class="TopLeft"></path><path d="M1375 773L1828 1226" stroke-width="6" stroke="url(#SvgjsLinearGradient1020)" stroke-linecap="round" class="BottomRight"></path><path d="M763 424L274 -65" stroke-width="10" stroke="url(#SvgjsLinearGradient1019)" stroke-linecap="round" class="TopLeft"></path><path d="M698 673L37 12" stroke-width="6" stroke="url(#SvgjsLinearGradient1019)" stroke-linecap="round" class="TopLeft"></path><path d="M546 692L823 969" stroke-width="8" stroke="url(#SvgjsLinearGradient1019)" stroke-linecap="round" class="TopLeft"></path><path d="M532 550L759 777" stroke-width="8" stroke="url(#SvgjsLinearGradient1019)" stroke-linecap="round" class="TopLeft"></path><path d="M251 300L-411 -362" stroke-width="8" stroke="url(#SvgjsLinearGradient1019)" stroke-linecap="round" class="TopLeft"></path><path d="M1029 701L1404 1076" stroke-width="10" stroke="url(#SvgjsLinearGradient1019)" stroke-linecap="round" class="TopLeft"></path><path d="M155 701L-151 395" stroke-width="8" stroke="url(#SvgjsLinearGradient1020)" stroke-linecap="round" class="BottomRight"></path><path d="M1198 37L1723 562" stroke-width="10" stroke="url(#SvgjsLinearGradient1019)" stroke-linecap="round" class="TopLeft"></path><path d="M977 148L1455 626" stroke-width="10" stroke="url(#SvgjsLinearGradient1019)" stroke-linecap="round" class="TopLeft"></path><path d="M1260 397L922 59" stroke-width="6" stroke="url(#SvgjsLinearGradient1019)" stroke-linecap="round" class="TopLeft"></path><path d="M379 375L73 69" stroke-width="10" stroke="url(#SvgjsLinearGradient1020)" stroke-linecap="round" class="BottomRight"></path><path d="M620 35L239 -346" stroke-width="10" stroke="url(#SvgjsLinearGradient1019)" stroke-linecap="round" class="TopLeft"></path><path d="M436 824L692 1080" stroke-width="6" stroke="url(#SvgjsLinearGradient1020)" stroke-linecap="round" class="BottomRight"></path><path d="M1080 349L606 -125" stroke-width="10" stroke="url(#SvgjsLinearGradient1019)" stroke-linecap="round" class="TopLeft"></path><path d="M1397 273L875 -249" stroke-width="8" stroke="url(#SvgjsLinearGradient1019)" stroke-linecap="round" class="TopLeft"></path><path d="M1156 243L914 1" stroke-width="6" stroke="url(#SvgjsLinearGradient1019)" stroke-linecap="round" class="TopLeft"></path><path d="M976 213L459 -304" stroke-width="8" stroke="url(#SvgjsLinearGradient1020)" stroke-linecap="round" class="BottomRight"></path><path d="M514 724L941 1151" stroke-width="8" stroke="url(#SvgjsLinearGradient1019)" stroke-linecap="round" class="TopLeft"></path><path d="M1340 395L1621 676" stroke-width="8" stroke="url(#SvgjsLinearGradient1019)" stroke-linecap="round" class="TopLeft"></path><path d="M1367 395L1645 673" stroke-width="6" stroke="url(#SvgjsLinearGradient1020)" stroke-linecap="round" class="BottomRight"></path><path d="M1017 106L433 -478" stroke-width="8" stroke="url(#SvgjsLinearGradient1020)" stroke-linecap="round" class="BottomRight"></path><path d="M338 632L106 400" stroke-width="6" stroke="url(#SvgjsLinearGradient1019)" stroke-linecap="round" class="TopLeft"></path><path d="M1384 872L1980 1468" stroke-width="10" stroke="url(#SvgjsLinearGradient1019)" stroke-linecap="round" class="TopLeft"></path><path d="M1274 163L602 -509" stroke-width="6" stroke="url(#SvgjsLinearGradient1020)" stroke-linecap="round" class="BottomRight"></path><path d="M1036 112L1689 765" stroke-width="6" stroke="url(#SvgjsLinearGradient1019)" stroke-linecap="round" class="TopLeft"></path></g><defs><mask id="SvgjsMask1018"><rect width="1440" height="900" fill="#ffffff"></rect></mask><linearGradient x1="100%" y1="100%" x2="0%" y2="0%" id="SvgjsLinearGradient1019"><stop stop-color="rgba(170, 170, 170, 0)" offset="0"></stop><stop stop-color="rgba(170, 170, 170, 1)" offset="1"></stop></linearGradient><linearGradient x1="0%" y1="0%" x2="100%" y2="100%" id="SvgjsLinearGradient1020"><stop stop-color="rgba(170, 170, 170, 0)" offset="0"></stop><stop stop-color="rgba(170, 170, 170, 1)" offset="1"></stop></linearGradient></defs></svg>